<svg width="21" height="21" viewBox="0 0 21 21" fill="none" xmlns="http://www.w3.org/2000/svg">
<path d="M10.4063 0.083374C4.65625 0.083374 0 4.75004 0 10.5C0 16.25 4.65625 20.9167 10.4063 20.9167C16.1667 20.9167 20.8333 16.25 20.8333 10.5C20.8333 4.75004 16.1667 0.083374 10.4063 0.083374ZM10.4167 18.8334C5.8125 18.8334 2.08333 15.1042 2.08333 10.5C2.08333 5.89587 5.8125 2.16671 10.4167 2.16671C15.0208 2.16671 18.75 5.89587 18.75 10.5C18.75 15.1042 15.0208 18.8334 10.4167 18.8334Z" fill="white"/>
<path d="M10.9375 5.29163H9.375V11.5416L14.8438 14.8229L15.625 13.5416L10.9375 10.7604V5.29163Z" fill="white"/>
</svg>
