<svg width="25" height="25" viewBox="0 0 25 25" fill="none" xmlns="http://www.w3.org/2000/svg">
<path d="M9.10625 9.04375C7.98854 9.99375 7.57916 11.726 8.54375 13.1156C9.45018 14.419 10.5818 15.5502 11.8854 16.4563C13.275 17.4208 15.0073 17.0115 15.9573 15.8938L15.9677 15.899C17.1809 16.4613 18.4688 16.8462 19.7917 17.0417V19.7917H19.7875C11.4812 19.8031 5.19895 13.449 5.20833 5.2125V5.20833H7.95833V5.20938C8.15416 6.53229 8.53958 7.81979 9.10104 9.03229L9.10625 9.04271V9.04375ZM19.7917 21.875H20.8333C21.1096 21.875 21.3745 21.7653 21.5699 21.5699C21.7652 21.3746 21.875 21.1096 21.875 20.8333V16.1437C21.8752 15.8939 21.7856 15.6522 21.6225 15.4629C21.4594 15.2736 21.2336 15.1492 20.9865 15.1125L20.0969 14.9812C18.9715 14.8142 17.876 14.4866 16.8437 14.0083L16.0594 13.6448C15.8391 13.5428 15.5901 13.5208 15.3554 13.5828C15.1207 13.6448 14.9151 13.7869 14.774 13.9844L14.4187 14.4812C14.1073 14.9177 13.5125 15.05 13.074 14.7448C11.9744 13.9805 11.0199 13.0263 10.2552 11.9271C9.95 11.4875 10.0833 10.8927 10.5187 10.5823L11.0156 10.2281C11.2134 10.087 11.3556 9.8811 11.4176 9.64618C11.4796 9.41125 11.4575 9.16204 11.3552 8.94167L10.9906 8.15625C10.5128 7.1239 10.1856 6.02838 10.0187 4.90313L9.88645 4.01354C9.84972 3.76637 9.72535 3.54063 9.53604 3.37752C9.34673 3.21441 9.10509 3.12478 8.8552 3.125H4.16666C3.8904 3.125 3.62544 3.23475 3.43009 3.4301C3.23474 3.62545 3.125 3.8904 3.125 4.16667V5.20938C3.11458 14.5917 10.3229 21.8885 19.7906 21.875H19.7917Z" fill="#3522B0"/>
</svg>
