<svg width="64" height="39" viewBox="0 0 64 39" fill="none" xmlns="http://www.w3.org/2000/svg">
<path d="M21 37.25C22.4587 37.25 23.8576 36.6705 24.8891 35.6391C25.9205 34.6076 26.5 33.2087 26.5 31.75C26.5 30.2913 25.9205 28.8924 24.8891 27.8609C23.8576 26.8295 22.4587 26.25 21 26.25C19.5413 26.25 18.1424 26.8295 17.1109 27.8609C16.0795 28.8924 15.5 30.2913 15.5 31.75C15.5 33.2087 16.0795 34.6076 17.1109 35.6391C18.1424 36.6705 19.5413 37.25 21 37.25V37.25ZM48.5 37.25C49.9587 37.25 51.3576 36.6705 52.3891 35.6391C53.4205 34.6076 54 33.2087 54 31.75C54 30.2913 53.4205 28.8924 52.3891 27.8609C51.3576 26.8295 49.9587 26.25 48.5 26.25C47.0413 26.25 45.6424 26.8295 44.6109 27.8609C43.5795 28.8924 43 30.2913 43 31.75C43 33.2087 43.5795 34.6076 44.6109 35.6391C45.6424 36.6705 47.0413 37.25 48.5 37.25V37.25Z" stroke="#3522B0" stroke-width="3" stroke-miterlimit="1.5" stroke-linecap="round" stroke-linejoin="round"/>
<path d="M26.6375 31.75H40.25V3.15C40.25 2.71239 40.0762 2.29271 39.7667 1.98327C39.4573 1.67384 39.0376 1.5 38.6 1.5H1.75M14.5375 31.75H8.9C8.68332 31.75 8.46876 31.7073 8.26857 31.6244C8.06839 31.5415 7.88649 31.4199 7.73327 31.2667C7.58006 31.1135 7.45852 30.9316 7.3756 30.7314C7.29268 30.5312 7.25 30.3167 7.25 30.1V16.625" stroke="#3522B0" stroke-width="3" stroke-linecap="round"/>
<path d="M4.5 9.75H15.5" stroke="#3522B0" stroke-width="3" stroke-linecap="round" stroke-linejoin="round"/>
<path d="M40.25 9.75H55.6775C55.9964 9.75008 56.3085 9.84259 56.576 10.0163C56.8434 10.1901 57.0548 10.4376 57.1845 10.729L62.107 21.806C62.2008 22.0163 62.2495 22.244 62.25 22.4742V30.1C62.25 30.3167 62.2073 30.5312 62.1244 30.7314C62.0415 30.9316 61.9199 31.1135 61.7667 31.2667C61.6135 31.4199 61.4316 31.5415 61.2314 31.6244C61.0312 31.7073 60.8167 31.75 60.6 31.75H55.375M40.25 31.75H43" stroke="#3522B0" stroke-width="3" stroke-linecap="round"/>
</svg>
