<svg width="66" height="66" viewBox="0 0 66 66" fill="none" xmlns="http://www.w3.org/2000/svg">
<path d="M17.0956 11.05C17.3832 10.7207 17.7401 10.4563 18.1419 10.2751C18.5437 10.0938 18.9808 9.99997 19.4231 10H45.5769C46.0192 9.99997 46.4563 10.0938 46.8581 10.2751C47.2599 10.4563 47.6168 10.7207 47.9044 11.05L55.8944 20.182C56.6078 20.9975 57 22.036 57 23.11V23.875C57.0002 25.3599 56.5267 26.8078 55.6458 28.0163C54.7649 29.2247 53.5206 30.1334 52.0868 30.6152C50.6529 31.0971 49.1012 31.1281 47.6485 30.7038C46.1959 30.2796 44.9148 29.4213 43.9844 28.249C43.3049 29.1063 42.4342 29.7999 41.4389 30.2768C40.4436 30.7536 39.3501 31.001 38.2422 31C37.1342 31.0012 36.0406 30.7539 35.0453 30.2771C34.05 29.8002 33.1793 29.1065 32.5 28.249C31.8207 29.1065 30.95 29.8002 29.9547 30.2771C28.9594 30.7539 27.8658 31.0012 26.7578 31C25.6498 31.0012 24.5563 30.7539 23.5609 30.2771C22.5656 29.8002 21.6949 29.1065 21.0156 28.249C20.0852 29.4213 18.8041 30.2796 17.3515 30.7038C15.8988 31.1281 14.3471 31.0971 12.9132 30.6152C11.4794 30.1334 10.2351 29.2247 9.35418 28.0163C8.47328 26.8078 7.99983 25.3599 8 23.875V23.11C8.00004 22.036 8.39217 20.9975 9.10556 20.182L17.0987 11.047L17.0956 11.05ZM22.5469 23.875C22.5469 24.969 22.9905 26.0182 23.7802 26.7918C24.5699 27.5654 25.641 28 26.7578 28C27.8746 28 28.9457 27.5654 29.7354 26.7918C30.5251 26.0182 30.9688 24.969 30.9688 23.875C30.9688 23.4772 31.1301 23.0956 31.4172 22.8143C31.7044 22.533 32.0939 22.375 32.5 22.375C32.9061 22.375 33.2956 22.533 33.5828 22.8143C33.8699 23.0956 34.0312 23.4772 34.0312 23.875C34.0312 24.969 34.4749 26.0182 35.2646 26.7918C36.0543 27.5654 37.1254 28 38.2422 28C39.359 28 40.4301 27.5654 41.2198 26.7918C42.0095 26.0182 42.4531 24.969 42.4531 23.875C42.4531 23.4772 42.6145 23.0956 42.9016 22.8143C43.1888 22.533 43.5783 22.375 43.9844 22.375C44.3905 22.375 44.78 22.533 45.0671 22.8143C45.3543 23.0956 45.5156 23.4772 45.5156 23.875C45.5156 24.969 45.9593 26.0182 46.749 26.7918C47.5387 27.5654 48.6098 28 49.7266 28C50.8434 28 51.9144 27.5654 52.7041 26.7918C53.4939 26.0182 53.9375 24.969 53.9375 23.875V23.11C53.9375 22.7525 53.8072 22.4067 53.57 22.135L45.5769 13H19.4231L11.43 22.135C11.1928 22.4067 11.0625 22.7525 11.0625 23.11V23.875C11.0625 24.969 11.5062 26.0182 12.2959 26.7918C13.0856 27.5654 14.1566 28 15.2734 28C16.3902 28 17.4613 27.5654 18.251 26.7918C19.0407 26.0182 19.4844 24.969 19.4844 23.875C19.4844 23.4772 19.6457 23.0956 19.9329 22.8143C20.22 22.533 20.6095 22.375 21.0156 22.375C21.4217 22.375 21.8112 22.533 22.0984 22.8143C22.3855 23.0956 22.5469 23.4772 22.5469 23.875ZM12.5938 32.5C12.9999 32.5 13.3893 32.658 13.6765 32.9393C13.9637 33.2206 14.125 33.6022 14.125 34V52H17.1875V37C17.1875 36.2044 17.5102 35.4413 18.0845 34.8787C18.6588 34.3161 19.4378 34 20.25 34H29.4375C30.2497 34 31.0287 34.3161 31.603 34.8787C32.1773 35.4413 32.5 36.2044 32.5 37V52H50.875V34C50.875 33.6022 51.0363 33.2206 51.3235 32.9393C51.6107 32.658 52.0001 32.5 52.4062 32.5C52.8124 32.5 53.2018 32.658 53.489 32.9393C53.7762 33.2206 53.9375 33.6022 53.9375 34V52H55.4688C55.8749 52 56.2643 52.158 56.5515 52.4393C56.8387 52.7206 57 53.1022 57 53.5C57 53.8978 56.8387 54.2794 56.5515 54.5607C56.2643 54.842 55.8749 55 55.4688 55H9.53125C9.12514 55 8.73566 54.842 8.44849 54.5607C8.16133 54.2794 8 53.8978 8 53.5C8 53.1022 8.16133 52.7206 8.44849 52.4393C8.73566 52.158 9.12514 52 9.53125 52H11.0625V34C11.0625 33.6022 11.2238 33.2206 11.511 32.9393C11.7982 32.658 12.1876 32.5 12.5938 32.5ZM20.25 52H29.4375V37H20.25V52ZM35.5625 37C35.5625 36.2044 35.8852 35.4413 36.4595 34.8787C37.0338 34.3161 37.8128 34 38.625 34H44.75C45.5622 34 46.3412 34.3161 46.9155 34.8787C47.4898 35.4413 47.8125 36.2044 47.8125 37V46C47.8125 46.7957 47.4898 47.5587 46.9155 48.1213C46.3412 48.6839 45.5622 49 44.75 49H38.625C37.8128 49 37.0338 48.6839 36.4595 48.1213C35.8852 47.5587 35.5625 46.7957 35.5625 46V37ZM44.75 37H38.625V46H44.75V37Z" fill="#3522B0"/>
</svg>
